<?xml version="1.0" encoding="UTF-8" standalone="no"?>
<svg
   sodipodi:docname="logo.svg"
   inkscape:version="1.3 (1:1.3+202307231459+0e150ed6c4)"
   id="svg987"
   version="1.1"
   viewBox="0 0 218 41.000001"
   height="154.96063"
   width="823.93701"
   xmlns:inkscape="http://www.inkscape.org/namespaces/inkscape"
   xmlns:sodipodi="http://sodipodi.sourceforge.net/DTD/sodipodi-0.dtd"
   xmlns="http://www.w3.org/2000/svg"
   xmlns:svg="http://www.w3.org/2000/svg"
   xmlns:rdf="http://www.w3.org/1999/02/22-rdf-syntax-ns#"
   xmlns:cc="http://creativecommons.org/ns#"
   xmlns:dc="http://purl.org/dc/elements/1.1/">
  <defs
     id="defs981">
    <linearGradient
       id="linearGradient5663-9-0">
      <stop
         id="stop5665-62-8"
         offset="0"
         style="stop-color:#dcdcdc;stop-opacity:1;" />
      <stop
         style="stop-color:#f5f5f5;stop-opacity:1;"
         offset="0.48173517"
         id="stop5671-5-5" />
      <stop
         id="stop5667-44-5"
         offset="1"
         style="stop-color:#dcdcdc;stop-opacity:1;" />
    </linearGradient>
    <linearGradient
       id="linearGradient5649-9-05">
      <stop
         id="stop5651-36-6"
         offset="0"
         style="stop-color:#a51923;stop-opacity:1;" />
      <stop
         style="stop-color:#e34651;stop-opacity:1;"
         offset="0.49342772"
         id="stop5657-05-82" />
      <stop
         id="stop5653-0-7"
         offset="1"
         style="stop-color:#a51923;stop-opacity:1;" />
    </linearGradient>
    <linearGradient
       id="linearGradient5548-8">
      <stop
         id="stop5550-0"
         offset="0"
         style="stop-color:#4b050f;stop-opacity:0.39520958;" />
      <stop
         id="stop5552-7"
         offset="1"
         style="stop-color:#2e0309;stop-opacity:1;" />
    </linearGradient>
    <linearGradient
       id="linearGradient4323-4-8-2">
      <stop
         style="stop-color:#ffd68e;stop-opacity:1;"
         offset="0"
         id="stop4325-8-1-1" />
      <stop
         id="stop4333-0-9-7"
         offset="0.42679286"
         style="stop-color:#fdbb48;stop-opacity:1;" />
      <stop
         id="stop4331-4-9-19"
         offset="0.77844912"
         style="stop-color:#fbb130;stop-opacity:1;" />
      <stop
         style="stop-color:#b48043;stop-opacity:1;"
         offset="1"
         id="stop4327-4-7-0" />
    </linearGradient>
    <linearGradient
       id="linearGradient4403-1-8-5">
      <stop
         style="stop-color:#ff7808;stop-opacity:1"
         offset="0"
         id="stop4405-8-25-0" />
      <stop
         style="stop-color:#ffb44e;stop-opacity:1"
         offset="1"
         id="stop4407-3-3-3" />
    </linearGradient>
    <linearGradient
       id="linearGradient4337-9-4">
      <stop
         style="stop-color:#ed3d05;stop-opacity:1;"
         offset="0"
         id="stop4339-4-1" />
      <stop
         style="stop-color:#270a01;stop-opacity:1;"
         offset="1"
         id="stop4341-5-6" />
    </linearGradient>
    <linearGradient
       id="linearGradient4550-7-2">
      <stop
         style="stop-color:#fca823;stop-opacity:1;"
         offset="0"
         id="stop4552-4-6" />
      <stop
         style="stop-color:#d74603;stop-opacity:0"
         offset="1"
         id="stop4554-9-6" />
    </linearGradient>
    <linearGradient
       id="linearGradient6218-9-1">
      <stop
         id="stop6220-2-6"
         offset="0"
         style="stop-color:#ff7808;stop-opacity:1" />
      <stop
         id="stop6222-5-5"
         offset="1"
         style="stop-color:#ce8b37;stop-opacity:1" />
    </linearGradient>
    <linearGradient
       id="linearGradient3827-6">
      <stop
         style="stop-color:#1b5fcd;stop-opacity:1;"
         offset="0"
         id="stop3829-7" />
      <stop
         style="stop-color:#0b2651;stop-opacity:1;"
         offset="1"
         id="stop3831-2" />
    </linearGradient>
    <linearGradient
       id="linearGradient3835-0">
      <stop
         style="stop-color:#1b5fcd;stop-opacity:1;"
         offset="0"
         id="stop3837-4-1" />
      <stop
         style="stop-color:#0d2d61;stop-opacity:1;"
         offset="1"
         id="stop3839-1" />
    </linearGradient>
    <linearGradient
       id="linearGradient6297">
      <stop
         id="stop6299"
         offset="0"
         style="stop-color:#a06428;stop-opacity:1;" />
      <stop
         id="stop6301"
         offset="1"
         style="stop-color:#321801;stop-opacity:1" />
    </linearGradient>
    <linearGradient
       id="linearGradient3792">
      <stop
         id="stop3794"
         offset="0"
         style="stop-color:#659b05;stop-opacity:1" />
      <stop
         id="stop3796"
         offset="1"
         style="stop-color:#8c5014;stop-opacity:1" />
    </linearGradient>
  </defs>
  <sodipodi:namedview
     inkscape:document-rotation="0"
     inkscape:window-maximized="1"
     inkscape:window-y="0"
     inkscape:window-x="0"
     inkscape:window-height="882"
     inkscape:window-width="1920"
     inkscape:showpageshadow="false"
     showgrid="false"
     inkscape:current-layer="g1"
     inkscape:document-units="mm"
     inkscape:cy="342.85714"
     inkscape:cx="342.85714"
     inkscape:zoom="0.7"
     inkscape:pageshadow="2"
     inkscape:pageopacity="0.0"
     borderopacity="1.0"
     bordercolor="#666666"
     pagecolor="#ffffff"
     id="base"
     inkscape:pagecheckerboard="0"
     inkscape:deskcolor="#d1d1d1" />
  <metadata
     id="metadata984">
    <rdf:RDF>
      <cc:Work
         rdf:about="">
        <dc:format>image/svg+xml</dc:format>
        <dc:type
           rdf:resource="http://purl.org/dc/dcmitype/StillImage" />
      </cc:Work>
    </rdf:RDF>
  </metadata>
  <g
     transform="translate(0,-87)"
     id="layer1"
     inkscape:groupmode="layer"
     inkscape:label="Capa 1">
    <g
       id="g1"
       transform="matrix(1.0302853,0,0,1.0302853,0.82924135,56.879031)">
      <path
         d="M 8.4186682,44.649721 H 19.480585 c 0.657877,0 1.169541,-0.17055 1.510653,-0.536039 0.341128,-0.341124 0.53604,-0.852793 0.53604,-1.486291 0,-1.340099 -0.68222,-2.022338 -2.046693,-2.022338 H 7.8826361 c -2.7776705,0 -4.921828,0.804061 -6.4081275,2.387812 -1.48628023,1.608124 -2.21725458,3.654825 -2.21725458,6.1401 0,2.509641 0.73097435,4.556339 2.21725458,6.140098 1.4862995,1.608117 3.630457,2.387809 6.4081275,2.387809 H 19.480585 c 0.657877,0 1.169541,-0.170555 1.510653,-0.536036 0.341128,-0.341119 0.53604,-0.852794 0.53604,-1.486285 0,-1.340111 -0.68222,-2.022345 -2.046693,-2.022345 H 8.4186682 c -2.0954266,0 -3.5086203,-0.804062 -4.1908646,-2.460903 H 17.506988 c 0.657867,0 1.169542,-0.170562 1.510656,-0.536046 0.341114,-0.341123 0.536034,-0.852794 0.536034,-1.486292 0,-1.340103 -0.682233,-2.022332 -2.04669,-2.022332 H 4.2278036 c 0.7066023,-1.63249 2.095438,-2.460912 4.1908646,-2.460912 z m 20.1989658,8.211162 h 14.034499 v 2.509646 c 0,0.730947 0.194925,1.315722 0.584768,1.705578 0.389851,0.389842 0.974628,0.584765 1.70558,0.584765 0.730973,0 1.291368,-0.194923 1.68123,-0.584765 0.389843,-0.389856 0.609127,-0.974631 0.609127,-1.705578 v -6.237564 c 0,-2.485275 -0.755323,-4.531976 -2.241616,-6.1401 -1.486294,-1.583751 -3.606095,-2.387812 -6.38375,-2.387812 h -5.94517 c -2.777673,0 -4.921827,0.804061 -6.408118,2.387812 -1.486293,1.608124 -2.217259,3.654825 -2.217259,6.1401 v 6.237564 c 0,0.730947 0.194922,1.315722 0.584771,1.705578 0.389843,0.389842 0.974616,0.584765 1.705584,0.584765 0.730963,0 1.291376,-0.194923 1.681217,-0.584765 0.38985,-0.389856 0.609137,-0.974631 0.609137,-1.705578 z m 4.556339,-8.211162 h 4.921825 c 1.461923,0 2.582732,0.414203 3.362419,1.242639 0.779705,0.82842 1.193916,1.900502 1.193916,3.167503 H 28.617634 c 0,-1.291368 0.389842,-2.339083 1.169534,-3.167503 0.779693,-0.828436 1.924872,-1.242639 3.386805,-1.242639 z m 22.099444,6.505582 h 11.135025 c 0.38985,0 0.706596,0.121822 0.925887,0.341109 0.194919,0.243653 0.316751,0.536044 0.316751,0.901518 0,0.389849 -0.121832,0.682233 -0.316751,0.901524 -0.219291,0.219295 -0.536037,0.316752 -0.925887,0.316752 H 52.008454 c -0.682237,0 -1.193907,0.194933 -1.535016,0.536045 -0.341129,0.365481 -0.511688,0.852794 -0.511688,1.4863 0,1.364465 0.682238,2.022321 2.046704,2.022321 h 14.936032 c 1.705574,0 2.996942,-0.487307 3.92283,-1.461924 0.925889,-0.974622 1.388839,-2.241623 1.388839,-3.801018 0,-1.559386 -0.46295,-2.826385 -1.388839,-3.800995 -0.925888,-0.974636 -2.217256,-1.486302 -3.92283,-1.486302 H 55.809462 c -0.41421,0 -0.730956,-0.09747 -0.925885,-0.341118 -0.219286,-0.219283 -0.316754,-0.51168 -0.316754,-0.90153 0,-0.365488 0.09743,-0.657865 0.316754,-0.877153 0.194929,-0.219287 0.511675,-0.341111 0.925885,-0.341111 h 13.815214 c 0.657871,0 1.169548,-0.17055 1.510667,-0.536039 0.341107,-0.341124 0.536032,-0.852793 0.536032,-1.486291 0,-1.340099 -0.682235,-2.022338 -2.046699,-2.022338 H 55.273417 c -1.705579,0 -3.021313,0.511669 -3.9472,1.486294 -0.92588,0.998982 -1.364467,2.265988 -1.364467,3.801013 0,1.559384 0.438587,2.826389 1.364467,3.80101 0.925887,0.974619 2.241621,1.461933 3.9472,1.461933 z m 37.595869,-6.749242 c 0,1.169546 -0.365482,2.119795 -1.047725,2.850763 -0.68223,0.730956 -1.681209,1.096445 -2.972576,1.096445 H 82.85509 c -1.315755,0 -2.314728,-0.365489 -2.996966,-1.096445 -0.68222,-0.730968 -1.023347,-1.681217 -1.023347,-2.850763 v -1.51065 c 0,-0.730969 -0.219291,-1.29138 -0.609128,-1.68123 -0.389851,-0.389842 -0.950252,-0.609128 -1.681225,-0.609128 -0.730949,0 -1.315734,0.219286 -1.705584,0.609128 -0.389848,0.38985 -0.58476,0.950261 -0.58476,1.68123 v 1.827402 c 0,2.265987 0.657861,4.117763 1.997967,5.530959 1.31573,1.43757 3.24059,2.144158 5.750247,2.144158 h 1.559391 v 2.972599 c 0,0.730947 0.194918,1.315722 0.584763,1.705578 0.389847,0.389842 0.974621,0.584765 1.705589,0.584765 0.730963,0 1.29137,-0.194923 1.681217,-0.584765 0.38985,-0.389856 0.609136,-0.974631 0.609136,-1.705578 V 52.39793 h 1.559384 c 2.485278,0 4.41014,-0.706588 5.750231,-2.144158 1.315768,-1.413196 1.99802,-3.264972 1.99802,-5.530959 v -1.827402 c 0,-0.730969 -0.219328,-1.29138 -0.609146,-1.68123 -0.389883,-0.389842 -0.950274,-0.609128 -1.681258,-0.609128 -0.730977,0 -1.315727,0.219286 -1.705575,0.609128 -0.389824,0.38985 -0.58476,0.950261 -0.58476,1.68123 z m 19.931014,6.749242 h 11.13484 c 0.38998,0 0.70667,0.121822 0.92596,0.341109 0.19493,0.243653 0.31669,0.536044 0.31669,0.901518 0,0.389849 -0.12176,0.682233 -0.31669,0.901524 -0.21929,0.219295 -0.53598,0.316752 -0.92596,0.316752 h -14.39992 c -0.68224,0 -1.19392,0.194933 -1.53491,0.536045 -0.34112,0.365481 -0.51176,0.852794 -0.51176,1.4863 0,1.364465 0.68223,2.022321 2.04667,2.022321 h 14.93609 c 1.70563,0 2.99692,-0.487307 3.92285,-1.461924 0.92582,-0.974622 1.38878,-2.241623 1.38878,-3.801018 0,-1.559386 -0.46296,-2.826385 -1.38878,-3.800995 -0.92593,-0.974636 -2.21722,-1.486302 -3.92285,-1.486302 h -11.13502 c -0.41421,0 -0.73103,-0.09747 -0.92596,-0.341118 -0.21916,-0.219283 -0.31674,-0.51168 -0.31674,-0.90153 0,-0.365488 0.0976,-0.657865 0.31674,-0.877153 0.19493,-0.219287 0.51175,-0.341111 0.92596,-0.341111 h 13.81523 c 0.65789,0 1.16947,-0.17055 1.51063,-0.536039 0.34118,-0.341124 0.53599,-0.852793 0.53599,-1.486291 0,-1.340099 -0.68222,-2.022338 -2.04662,-2.022338 H 112.8003 c -1.70563,0 -3.02147,0.511669 -3.94732,1.486294 -0.92589,0.998982 -1.36443,2.265988 -1.36443,3.801013 0,1.559384 0.43854,2.826389 1.36443,3.80101 0.92585,0.974619 2.24169,1.461933 3.94732,1.461933 z m 19.95526,-8.259892 v 12.475118 c 0,0.730947 0.19492,1.315722 0.58471,1.705578 0.38987,0.389842 0.9746,0.584765 1.70564,0.584765 0.7309,0 1.29131,-0.194923 1.68117,-0.584765 0.38979,-0.389856 0.60905,-0.974631 0.60905,-1.705578 V 42.895411 c 0,-0.730969 -0.21926,-1.29138 -0.60905,-1.68123 -0.38986,-0.389842 -0.95027,-0.609128 -1.68117,-0.609128 -0.73104,0 -1.31577,0.219286 -1.70564,0.609128 -0.38979,0.38985 -0.58471,0.950261 -0.58471,1.68123 z m 27.80093,1.75431 c 0.65782,0 1.16954,-0.17055 1.51064,-0.536039 0.34116,-0.341124 0.53606,-0.852793 0.53606,-1.486291 0,-1.340099 -0.68224,-2.022338 -2.0467,-2.022338 h -19.10257 c -1.36447,0 -2.0467,0.682239 -2.0467,2.022338 0,0.633498 0.17053,1.145167 0.51177,1.486291 0.34103,0.365489 0.85274,0.536039 1.53493,0.536039 h 7.26088 v 10.720808 c 0,0.730947 0.19498,1.315722 0.58481,1.705578 0.38982,0.389842 0.97468,0.584765 1.70558,0.584765 0.73093,0 1.29136,-0.194923 1.68131,-0.584765 0.38979,-0.389856 0.60912,-0.974631 0.60912,-1.705578 V 44.649721 Z m 12.49947,0 h 11.06186 c 0.65787,0 1.16952,-0.17055 1.51074,-0.536039 0.341,-0.341124 0.53593,-0.852793 0.53593,-1.486291 0,-1.340099 -0.68215,-2.022338 -2.04667,-2.022338 h -11.59793 c -2.77764,0 -4.92187,0.804061 -6.40808,2.387812 -1.48625,1.608124 -2.21735,3.654825 -2.21735,6.1401 0,2.509641 0.7311,4.556339 2.21735,6.140098 1.48621,1.608117 3.63044,2.387809 6.40808,2.387809 h 11.59793 c 0.65787,0 1.16952,-0.170555 1.51074,-0.536036 0.341,-0.341119 0.53593,-0.852794 0.53593,-1.486285 0,-1.340111 -0.68215,-2.022345 -2.04667,-2.022345 h -11.06186 c -2.09548,0 -3.50864,-0.804062 -4.19087,-2.460903 h 13.27912 c 0.65797,0 1.16956,-0.170562 1.51059,-0.536046 0.34122,-0.341123 0.53616,-0.852794 0.53616,-1.486292 0,-1.340103 -0.68233,-2.022332 -2.04675,-2.022332 h -13.27912 c 0.70663,-1.63249 2.09539,-2.460912 4.19087,-2.460912 z m 20.68618,6.505582 h 11.13502 c 0.3898,0 0.70661,0.121822 0.92597,0.341109 0.19486,0.243653 0.31664,0.536044 0.31664,0.901518 0,0.389849 -0.12178,0.682233 -0.31664,0.901524 -0.21936,0.219295 -0.53617,0.316752 -0.92597,0.316752 h -14.3999 c -0.68225,0 -1.19393,0.194933 -1.53512,0.536045 -0.34111,0.365481 -0.51162,0.852794 -0.51162,1.4863 0,1.364465 0.6822,2.022321 2.04674,2.022321 h 14.93593 c 1.70559,0 2.99702,-0.487307 3.92296,-1.461924 0.92582,-0.974622 1.38874,-2.241623 1.38874,-3.801018 0,-1.559386 -0.46292,-2.826385 -1.38874,-3.800995 -0.92594,-0.974636 -2.21737,-1.486302 -3.92296,-1.486302 h -11.13494 c -0.41416,0 -0.73103,-0.09747 -0.9259,-0.341118 -0.21934,-0.219283 -0.31667,-0.51168 -0.31667,-0.90153 0,-0.365488 0.0972,-0.657865 0.31667,-0.877153 0.19487,-0.219287 0.51174,-0.341111 0.9259,-0.341111 h 13.8152 c 0.65793,0 1.1695,-0.17055 1.51061,-0.536039 0.3411,-0.341124 0.53609,-0.852793 0.53609,-1.486291 0,-1.340099 -0.68228,-2.022338 -2.0467,-2.022338 h -14.35131 c -1.70558,0 -3.02134,0.511669 -3.94713,1.486294 -0.92589,0.998982 -1.36449,2.265988 -1.36449,3.801013 0,1.559384 0.4386,2.826389 1.36449,3.80101 0.92579,0.974619 2.24155,1.461933 3.94713,1.461933 z"
         id="text1"
         style="font-size:21.9141px;line-height:0;font-family:SpaceColony-Bold;-inkscape-font-specification:SpaceColony-Bold;text-align:center;text-anchor:middle;fill:#0d1753;stroke:#0d1753;stroke-width:0;stroke-linecap:round;stroke-linejoin:round;paint-order:markers fill stroke"
         aria-label="EASY SITES" />
    </g>
  </g>
</svg>
